<svg xmlns="http://www.w3.org/2000/svg" viewBox="0 0 98 88"><defs><style>.cls-1{fill:none;stroke:#45c8fe;stroke-miterlimit:10;stroke-width:4px;}</style></defs><title>Asset 6idk</title><g id="Layer_2" data-name="Layer 2"><g id="Layer_2-2" data-name="Layer 2"><path class="cls-1" d="M22,18H96V86H10a8,8,0,0,1-8-8V10"/><path class="cls-1" d="M10,2H77a0,0,0,0,1,0,0V18a0,0,0,0,1,0,0H10a8,8,0,0,1-8-8v0a8,8,0,0,1,8-8Z"/><line class="cls-1" x1="2" y1="10" x2="69" y2="10"/><path class="cls-1" d="M26,36V60a4,4,0,0,0,4,4H40.27L49,72.73,57.73,64H68a4,4,0,0,0,4-4V36a4,4,0,0,0-4-4H30A4,4,0,0,0,26,36Z"/></g></g></svg>