<svg xmlns="http://www.w3.org/2000/svg" viewBox="0 0 90.79 104.62"><defs><style>.cls-1,.cls-2,.cls-3{fill:none;stroke:#5da9ff;stroke-miterlimit:10;stroke-width:4px;}.cls-2{stroke-dasharray:6.99 4.66;}.cls-3{stroke-dasharray:5.05 3.37;}</style></defs><title>Asset 6idk</title><g id="Layer_2" data-name="Layer 2"><g id="Layer_2-2" data-name="Layer 2"><polygon class="cls-1" points="88.79 77.31 88.79 27.31 45.4 2.31 2 27.31 2 77.31 45.4 102.31 88.79 77.31"/><line class="cls-1" x1="45.4" y1="102.31" x2="45.4" y2="99.31"/><line class="cls-2" x1="45.4" y1="94.65" x2="45.4" y2="73.68"/><line class="cls-1" x1="45.4" y1="71.35" x2="45.4" y2="68.35"/><line class="cls-1" x1="88.79" y1="27.78" x2="86.18" y2="29.25"/><line class="cls-3" x1="83.24" y1="30.9" x2="62.69" y2="42.46"/><line class="cls-1" x1="61.22" y1="43.29" x2="58.6" y2="44.76"/><line class="cls-1" x1="1.06" y1="27.78" x2="3.67" y2="29.25"/><line class="cls-3" x1="6.61" y1="30.9" x2="27.16" y2="42.46"/><line class="cls-1" x1="28.63" y1="43.29" x2="31.25" y2="44.76"/><polygon class="cls-1" points="58.6 59.92 58.6 44.7 45.4 37.09 32.19 44.7 32.19 59.92 45.4 67.53 58.6 59.92"/></g></g></svg>