<svg xmlns="http://www.w3.org/2000/svg" viewBox="0 0 96 110.62"><defs><style>.cls-1,.cls-2,.cls-3{fill:none;stroke:#a367ff;stroke-miterlimit:10;stroke-width:4px;}.cls-2{stroke-dasharray:5.29 3.53;}.cls-3{stroke-dasharray:5.42 3.61;}</style></defs><title>Asset 11idk</title><g id="Layer_2" data-name="Layer 2"><g id="Layer_2-2" data-name="Layer 2"><polygon class="cls-1" points="94 81.81 94 28.81 48 2.31 2 28.81 2 81.81 48 108.31 94 81.81"/><line class="cls-1" x1="48" y1="108.31" x2="48" y2="105.31"/><line class="cls-2" x1="48" y1="101.78" x2="48" y2="77.07"/><line class="cls-1" x1="48" y1="75.31" x2="48" y2="72.31"/><line class="cls-1" x1="94" y1="29.31" x2="91.39" y2="30.78"/><line class="cls-3" x1="88.24" y1="32.55" x2="66.19" y2="44.95"/><line class="cls-1" x1="64.61" y1="45.84" x2="62" y2="47.31"/><line class="cls-1" x1="1" y1="29.31" x2="3.61" y2="30.78"/><line class="cls-3" x1="6.76" y1="32.55" x2="28.81" y2="44.95"/><line class="cls-1" x1="30.39" y1="45.84" x2="33" y2="47.31"/><polygon class="cls-1" points="62 63.37 62 47.24 48 39.18 34 47.24 34 63.37 48 71.44 62 63.37"/></g></g></svg>