<?xml version="1.0" encoding="UTF-8"?>
<svg width="21px" height="17px" viewBox="0 0 21 17" version="1.1" xmlns="http://www.w3.org/2000/svg" xmlns:xlink="http://www.w3.org/1999/xlink">
    <!-- Generator: Sketch 49 (51002) - http://www.bohemiancoding.com/sketch -->
    <title>Twitter_Logo_Blue</title>
    <desc>Created with Sketch.</desc>
    <defs></defs>
    <g id="Symbols" stroke="none" stroke-width="1" fill="none" fill-rule="evenodd">
        <g id="social" transform="translate(0.000000, -1.000000)" fill="#748397">
            <g id="Twitter_Logo_Blue">
                <path d="M18.862956,5.78946539 C18.862956,5.60363327 18.859176,5.41863784 18.850608,5.23464647 C19.691784,4.62895589 20.423088,3.87316048 21,3.01260963 C20.227956,3.35415252 19.397196,3.58441367 18.525696,3.68816506 C19.415256,3.15702487 20.098176,2.31630393 20.420232,1.31426631 C19.587624,1.80583036 18.665892,2.1633543 17.68452,2.35588007 C16.898364,1.52176909 15.778644,1 14.539644,1 C12.160092,1 10.230528,2.92199451 10.230528,5.29129138 C10.230528,5.62814872 10.268412,5.95555129 10.342248,6.2698176 C6.76158,6.09051177 3.58638,4.38271368 1.4616,1.78600045 C1.091244,2.42005532 0.878136,3.15702487 0.878136,3.94294166 C0.878136,5.43194145 1.638756,6.74632096 2.795352,7.51525264 C2.088744,7.49358198 1.424724,7.30013584 0.844032,6.97833919 C0.843024,6.99624467 0.843024,7.01423382 0.843024,7.03305968 C0.843024,9.11176899 2.328396,10.8469273 4.299624,11.2404296 C3.937836,11.3384914 3.55698,11.3913711 3.16386,11.3913711 C2.886324,11.3913711 2.616348,11.3640109 2.353932,11.3139759 C2.902452,13.0190129 4.492908,14.2597624 6.378876,14.2947366 C4.904004,15.4457914 3.046428,16.1317219 1.027824,16.1317219 C0.680148,16.1317219 0.33726,16.1119757 0,16.0723159 C1.906884,17.2894703 4.170852,18 6.604332,18 C14.529228,18 18.862956,11.4602319 18.862956,5.78946539 Z"></path>
            </g>
        </g>
    </g>
</svg>