<svg xmlns="http://www.w3.org/2000/svg" viewBox="0 0 140 155"><defs><style>.cls-1,.cls-2{fill:none;stroke-miterlimit:10;stroke-width:4px;}.cls-1{stroke:#45c8fe;}.cls-2{stroke:#fff;}</style></defs><title>Asset 1idk</title><g id="Layer_2" data-name="Layer 2"><g id="Layer_2-2" data-name="Layer 2"><circle class="cls-1" cx="68.59" cy="97.72" r="11.75"/><path class="cls-1" d="M42.91,136.92C49,127,58.45,120.59,69,120.59S89,127,95.09,136.92"/><path class="cls-2" d="M31,71H138v82H13.52A11.52,11.52,0,0,1,2,141.48V57"/><rect class="cls-2" x="19" y="2" width="102" height="69"/><line class="cls-2" x1="36" y1="22" x2="104" y2="22"/><line class="cls-2" x1="36" y1="38" x2="104" y2="38"/><line class="cls-2" x1="36" y1="54" x2="104" y2="54"/><path class="cls-2" d="M16,43h3a0,0,0,0,1,0,0V71a0,0,0,0,1,0,0H16A14,14,0,0,1,2,57v0A14,14,0,0,1,16,43Z"/></g></g></svg>