<svg xmlns="http://www.w3.org/2000/svg" viewBox="0 0 110.4 173.02"><defs><style>.cls-1,.cls-2{fill:none;stroke-miterlimit:10;stroke-width:4px;}.cls-1{stroke:#fff;}.cls-2{stroke:#a367ff;}</style></defs><title>Asset 4idk</title><g id="Layer_2" data-name="Layer 2"><g id="Layer_2-2" data-name="Layer 2"><circle class="cls-1" cx="55.2" cy="48.43" r="11.4"/><path class="cls-2" d="M66.6,143.43c0,6.3-11.4,25.65-11.4,25.65s-11.4-19.35-11.4-25.65a11.4,11.4,0,1,1,22.8,0Z"/><path class="cls-1" d="M20.35,90.54h0A32.32,32.32,0,0,0,4.45,132H17.67c0-5.7,5.23-13.3,14.73-13.3h-.57A85.56,85.56,0,0,1,20.35,90.54Z"/><path class="cls-1" d="M20.35,90.54h0A32.32,32.32,0,0,0,4.45,132H17.67c0-5.7,5.23-13.3,14.73-13.3h-.57A85.56,85.56,0,0,1,20.35,90.54Z"/><path class="cls-1" d="M90.05,90.54h0A32.32,32.32,0,0,1,105.95,132H92.73c0-5.7-5.23-13.3-14.73-13.3h.57A85.56,85.56,0,0,0,90.05,90.54Z"/><path class="cls-1" d="M90.05,90.54h0A32.32,32.32,0,0,1,105.95,132H92.73c0-5.7-5.23-13.3-14.73-13.3h.57A85.56,85.56,0,0,0,90.05,90.54Z"/><path class="cls-1" d="M55.53,2.44l-.33.24-.33-.24a86,86,0,0,0-23,116.29H78.57a85.58,85.58,0,0,0,13.35-46A85.93,85.93,0,0,0,55.53,2.44Z"/><line class="cls-1" x1="46.65" y1="76.93" x2="63.75" y2="76.93"/><line class="cls-1" x1="46.65" y1="92.13" x2="63.75" y2="92.13"/></g></g></svg>