<svg xmlns="http://www.w3.org/2000/svg" viewBox="0 0 171.57 161.47"><defs><style>.cls-1,.cls-2{fill:none;stroke-miterlimit:10;stroke-width:4px;}.cls-1{stroke:#fff;}.cls-2{stroke:#6d95ff;}</style></defs><title>Asset 2idk</title><g id="Layer_2" data-name="Layer 2"><g id="Layer_2-2" data-name="Layer 2"><path class="cls-1" d="M70.54,112.62H111a9,9,0,0,0,9-9h0a9,9,0,0,0-9-9H43.76a12,12,0,0,0-6,1.61l-11.5,6.64"/><path class="cls-1" d="M119.79,103.37,151.17,72a10.78,10.78,0,0,1,15.24,0h0a10.78,10.78,0,0,1,0,15.24L120.54,133.1a12,12,0,0,1-8.48,3.51H60.25a12,12,0,0,0-6,1.61l-5,2.89"/><rect class="cls-1" x="18.95" y="96.41" width="19.17" height="62.43" transform="translate(-68.04 39.45) rotate(-35)"/><circle class="cls-2" cx="93.75" cy="38" r="36"/><circle class="cls-2" cx="93.75" cy="38" r="24"/></g></g></svg>