<svg xmlns="http://www.w3.org/2000/svg" xmlns:xlink="http://www.w3.org/1999/xlink" viewBox="0 0 694 665.37"><defs><style>.cls-1{fill:url(#radial-gradient);}.cls-2{mask:url(#mask);}.cls-3{fill:#fff;}.cls-4{fill:#a367ff;}.cls-5{fill:#45c8fe;}.cls-6{fill:#7e7fff;}.cls-7{fill:#6d95ff;}</style><radialGradient id="radial-gradient" cx="342.59" cy="324.82" r="396.96" gradientUnits="userSpaceOnUse"><stop offset="0.54" stop-color="#fff"/><stop offset="0.58" stop-color="#f4f4f4" stop-opacity="0.96"/><stop offset="0.65" stop-color="#d6d6d6" stop-opacity="0.84"/><stop offset="0.74" stop-color="#a7a7a7" stop-opacity="0.65"/><stop offset="0.85" stop-color="#646464" stop-opacity="0.39"/><stop offset="0.98" stop-color="#111" stop-opacity="0.07"/><stop offset="1" stop-opacity="0"/></radialGradient><mask id="mask" x="-26.03" y="-15.73" width="755.95" height="681.1" maskUnits="userSpaceOnUse"><rect class="cls-1" x="-26.03" y="-15.73" width="755.95" height="681.1"/></mask></defs><title>Asset 5idk</title><g id="Layer_2" data-name="Layer 2"><g id="Layer_2-2" data-name="Layer 2"><g class="cls-2"><path class="cls-3" d="M694,312.36a6.64,6.64,0,0,0-4.94-6.4l-7.3-33.12a6.61,6.61,0,0,0-1.28-11.92l4.34-26.59a6.62,6.62,0,0,0-3.61-12.74l-23.64-44.79a6.59,6.59,0,0,0-6.69-10.87l-8.48-13.1a6.61,6.61,0,0,0-4.19-11.23l-4.64-23.22a6.63,6.63,0,1,0-6.71-11L603.22,93.26a6.58,6.58,0,0,0,.43-2.27A6.64,6.64,0,0,0,591,88.13l-54.23-23.3a6.56,6.56,0,0,0,.1-.95,6.66,6.66,0,0,0-6.65-6.65,6.59,6.59,0,0,0-3.49,1L489,21.64a6.64,6.64,0,1,0-11-7L415.28,5.47a6.64,6.64,0,0,0-13.18,1.18c0,.07,0,.14,0,.21l-24.93,7.67a6.64,6.64,0,0,0-12.61,1.41H341.48a6.64,6.64,0,0,0-12.59-1.45l-34.08-4.4a6.64,6.64,0,0,0-13-.3l-38.54,3.4a6.63,6.63,0,0,0-12.78,2.19L187.59,25.54A6.63,6.63,0,1,0,175.11,30L131.65,63.62,91.76,91.55A6.64,6.64,0,0,0,81.32,97h0l-34.1,12.1a6.63,6.63,0,1,0-10.48,7.77L19,147.62c-.11,0-.21,0-.31,0a6.63,6.63,0,0,0-4,11.93l-8.59,33.3a6.63,6.63,0,0,0-.76,13.12L8.49,231a6.64,6.64,0,0,0,2.68,12.73c.12,0,.24,0,.36,0l19.76,50a6.63,6.63,0,0,0,6.44,11.47L62,339.53A6.62,6.62,0,0,0,71.2,349L104,375.92a6.59,6.59,0,0,0-1.55,4.21,6.65,6.65,0,0,0,13.29.09l45.5,2.3c0,.21-.06.41-.06.62a6.66,6.66,0,0,0,6.65,6.65,6.57,6.57,0,0,0,3-.75l24.62,44.55a6.63,6.63,0,1,0,9.14,9.45l33.52,15.64a6.63,6.63,0,1,0,13.08,2.23l54.77-2.41a6.65,6.65,0,0,0,6.44,5.08,6.57,6.57,0,0,0,2.92-.7l16.25,22.75a6.62,6.62,0,0,0,9.17,9.51l35.89,30.1a6.57,6.57,0,0,0-.1,1,6.59,6.59,0,0,0,8.18,6.46l28.62,29.86a6.58,6.58,0,0,0-.66,2.83,6.66,6.66,0,0,0,6.65,6.65l.24,0L438,606.7a6.62,6.62,0,0,0,7.21,11.09L474,652.11a6.66,6.66,0,1,0,8.67-.74l29.64-87.17a6.56,6.56,0,0,0,1.85.29,6.63,6.63,0,0,0,3-12.53l42.56-90.3a6.58,6.58,0,0,0,1.64.23,6.66,6.66,0,0,0,6.65-6.65,6.59,6.59,0,0,0-.61-2.74L673.9,377a6.57,6.57,0,0,0,2.91.7,6.64,6.64,0,0,0,2.42-12.83L688,319A6.64,6.64,0,0,0,694,312.36ZM389.69,525.18a6.61,6.61,0,0,0-2.06-3.85l24.78-40.13a6.58,6.58,0,0,0,2.35.45,6.66,6.66,0,0,0,6.65-6.65,6.58,6.58,0,0,0-.22-1.61l77.53-36.09a6.66,6.66,0,0,0,1.35,1.14l-33,84.16a6.64,6.64,0,0,0-6.06,5.08ZM374.46,414.48a6.57,6.57,0,0,0-.55-1.34l107.73-75.85a6.6,6.6,0,0,0,10.29.65l48.81,43.93a6.55,6.55,0,0,0,.22,8.84l-35.71,35.71a6.48,6.48,0,0,0-7.43,3.22Zm-38,68.94a6.57,6.57,0,0,0-2.92.7l-16.25-22.75a6.59,6.59,0,0,0-6.84-10.77l-9-17.11a6.61,6.61,0,0,0-2.88-11.69V359.55a6.59,6.59,0,0,0,3-1.46l61.69,53.65a6.59,6.59,0,0,0,1.4,10.2L337.9,483.58A6.62,6.62,0,0,0,336.46,483.42ZM168.21,376.53l-7.89-28.18a6.55,6.55,0,0,0,3.12-8.28l52.23-35.22a6.63,6.63,0,0,0,2.78,1.76l-19.12,70.1a6.66,6.66,0,0,0-4.43,3.67H173.82A6.63,6.63,0,0,0,168.21,376.53Zm-60.06-39.79c0-.1,0-.19,0-.29a6.59,6.59,0,0,0-1.54-4.21l25.83-40.75a6.57,6.57,0,0,0,2.2.4,6.65,6.65,0,0,0,6.43-5l72.82,14.05a6.6,6.6,0,0,0,.41,1.8l-52.23,35.22a6.62,6.62,0,0,0-11.38,3.4Zm-2.22,37.55L72.76,347.05a6.57,6.57,0,0,0,.76-2.85l22.16-4.64a6.63,6.63,0,0,0,5.85,3.55l.26,0,5.48,30.67A6.57,6.57,0,0,0,105.93,374.3ZM38.42,293.18l34-70.9a6.56,6.56,0,0,0,2,.35A6.66,6.66,0,0,0,81.07,216c0-.16,0-.31,0-.47l58.46-20.28a6.66,6.66,0,0,0,3.26,2.83l-6.62,80.73a6.61,6.61,0,0,0-8.12,6.48c0,.08,0,.15,0,.22L41.34,296.31A6.66,6.66,0,0,0,38.42,293.18ZM84.57,102.69a6.58,6.58,0,0,0,10-5l66.18-5.36a6.62,6.62,0,0,0,.74,1.61l-47,42.86a6.57,6.57,0,0,0-9.69,2.09l-31.55-7.61a6.64,6.64,0,0,0-3.24-4Zm152.5-80.35a6.6,6.6,0,0,0,1.51-.19l5,17.51A6.68,6.68,0,0,0,240.07,43L187.84,29.12A6.68,6.68,0,0,0,188,28l42.85-10.15A6.64,6.64,0,0,0,237.06,22.34ZM303.1,38a6.57,6.57,0,0,0,3.24.88,6.63,6.63,0,0,0,5.59-10.22l17.75-7.47a6.64,6.64,0,0,0,3.07,2.23l-2.09,62.5a6.63,6.63,0,0,0-5.53,5.58l-49.9-1.61a6.59,6.59,0,0,0-1.54-3.27Zm68-14.18a6.65,6.65,0,0,0,1.31-.13L392.21,56a6.67,6.67,0,0,0-.68.75l-50.95-36a6.58,6.58,0,0,0,.9-2.25h23.09A6.66,6.66,0,0,0,371.1,23.84Zm152.48,40a6.61,6.61,0,0,0,1.1,3.65L485.3,110.07V23.72a6.55,6.55,0,0,0,1.62-.55l38,36.79A6.59,6.59,0,0,0,523.57,63.88Zm67.39,82a6.59,6.59,0,0,0,4.36-1.67L646.09,172c0,.12,0,.23,0,.35a6.66,6.66,0,0,0,5.4,6.52v33.64a6.64,6.64,0,0,0-4.11,2.63L575,176.89s0,0,0-.06a6.57,6.57,0,0,0-.85-3.18l15.11-28.06A6.57,6.57,0,0,0,591,145.83Zm80.7,121.36a6.61,6.61,0,0,0,1.18,3.77l-51.58,29.84a6.59,6.59,0,0,0-10.62.83l-92.86-35.78c0-.06,0-.11,0-.17a6.57,6.57,0,0,0-.4-2.19L647.4,223a6.52,6.52,0,0,0,8.28,2l19.79,36.28A6.64,6.64,0,0,0,671.66,267.18ZM670.3,369.72l-117.91,16a6.56,6.56,0,0,0-.74-2.61L613,310.9a6.48,6.48,0,0,0,6.8-.16l52.35,55.61A6.64,6.64,0,0,0,670.3,369.72ZM141.22,284.34a6.55,6.55,0,0,0-.27-1.15l68.87-54.94a6.6,6.6,0,0,0,10.45-1.54l82.84,34.5a6.57,6.57,0,0,0-.41,2.21s0,.07,0,.11l-77.47,32.14a6.61,6.61,0,0,0-11.09,2.75ZM73.46,134,104,141.32a6.55,6.55,0,0,0-.09.86,6.64,6.64,0,0,0,6.09,6.59l4.59,22.95a6.59,6.59,0,0,0-3.37,1.21l-38.7-36.28A6.58,6.58,0,0,0,73.46,134Zm116.77.14a6.55,6.55,0,0,0,.37.74l-41.41,51.77a6.59,6.59,0,0,0-9.55,1.67l-18.05-8.55a6.6,6.6,0,0,0-4.37-7.64l-4.71-23.55a6.64,6.64,0,0,0,4.71-6.33s0-.09,0-.13ZM264.34,96a6.6,6.6,0,0,0,10.83-3.55L325.24,94a6.65,6.65,0,0,0,6.45,5.1c.13,0,.25,0,.38,0L346.36,151a6.56,6.56,0,0,0-4.38,7.51l-67.54,16.57a6.56,6.56,0,0,0-10.06-1.76l-61.51-40.17a6.06,6.06,0,0,0-.08-3.23Zm70.91-72.17a6.59,6.59,0,0,0,3.59-1.26L390.35,59a5.86,5.86,0,0,0-.19,3L337.21,88.79a6.66,6.66,0,0,0-4-2.77ZM562.59,180a6.65,6.65,0,0,0,1.66,2l-50,77.81a6.57,6.57,0,0,0-3.08-.79c-.16,0-.32,0-.48,0l-8.84-65.66a6.65,6.65,0,0,0,3.8-4.89Zm83.71,40.62-130,40.53,50.16-78a6.56,6.56,0,0,0,1.89.31,6.66,6.66,0,0,0,6.11-4l71.79,37.93a6,6,0,0,0,0,3.29ZM456,268.25a6.4,6.4,0,0,0-6.52-2.8l-33.09-58.29a6.63,6.63,0,0,0,2-4.73c0-.13,0-.26,0-.39l74.86-11.62a6.63,6.63,0,0,0,5.88,3.6l.28,0,8.85,65.74a6.63,6.63,0,0,0-3.71,5.78Zm24.38,65.19c0,.21,0,.41.06.62L374.7,328.57a6.6,6.6,0,0,0-1.06-3.29l71.19-49.93a6.53,6.53,0,0,0,8.8,2.5l28.7,50.92A6.63,6.63,0,0,0,480.4,333.45Zm-329.52-145,41.35-51.69a6.57,6.57,0,0,0,9.6-1.34l61,39.82a6.46,6.46,0,0,0,.57,7l-45,35.88a6.55,6.55,0,0,0-9.05,1.12l-57.81-25.56a6.29,6.29,0,0,0-.67-5.26Zm187.46-96a6.64,6.64,0,0,0-.15-1.38l52.87-26.75A6.53,6.53,0,0,0,399,67.08l21.35,34.81a6.57,6.57,0,0,0-2.73,8.1l-63.76,43.36a6.62,6.62,0,0,0-5-2.72L334.51,98.49A6.64,6.64,0,0,0,338.34,92.49Zm134.6,24.74a6.6,6.6,0,0,0,2.29,4.39l-60.27,75a6.45,6.45,0,0,0-6.65.14l-53.61-37.12a6.26,6.26,0,0,0,.25-4l64-43.55a6.61,6.61,0,0,0,11.26-3ZM348.51,163.9a6.62,6.62,0,0,0,4.84-2.12l53.06,36.73a6.56,6.56,0,0,0-.76,6.54l-92.17,53.19a6.43,6.43,0,0,0-5.61-1.29L273.38,183a6.63,6.63,0,0,0,2-4.71,6.55,6.55,0,0,0-.09-.89l67.68-16.6A6.64,6.64,0,0,0,348.51,163.9ZM220.12,220l45.16-36a6.54,6.54,0,0,0,6,.45l34.3,73.5A6.68,6.68,0,0,0,304.4,259L221,224.31a5.86,5.86,0,0,0-.92-4.28ZM316,263.42a6.57,6.57,0,0,0-.87-3.23l91.94-53.05a6.63,6.63,0,0,0,7.26,1.43l32.79,57.77a6.63,6.63,0,0,0-3.23,5.67,6.55,6.55,0,0,0,.09.89l-72.11,50.58a6.56,6.56,0,0,0-6.25-.7L314.94,267A6.6,6.6,0,0,0,316,263.42Zm176.45-76.05c0,.21,0,.41.06.62l-74.77,11.6a6.63,6.63,0,0,0-.87-1.35l60.56-75.37a5.79,5.79,0,0,0,3.14.26l16.06,58.07A6.65,6.65,0,0,0,492.45,187.37Zm-19.28-72.65-42.81-8.1a6.47,6.47,0,0,0-7.59-5.61L401.15,65.77a6.65,6.65,0,0,0,1.46-1.92l71.81,48.52A6.6,6.6,0,0,0,473.17,114.72ZM115.08,185a6.65,6.65,0,0,0,5.53-3l18.07,8.56a6.65,6.65,0,0,0-.13,1.3,6.57,6.57,0,0,0,.1,1l-57,19.78,31.38-28A6.56,6.56,0,0,0,115.08,185Zm30.14,13.55A6.62,6.62,0,0,0,150.4,196l57.76,25.54a6.32,6.32,0,0,0,.23,4.67L139.71,281a6.67,6.67,0,0,0-1.15-1.09Zm81.43,99.27L303.24,266a6.62,6.62,0,0,0,10,2.79l50.27,55.33a6.62,6.62,0,0,0-2,4.71L302.5,348.92a6.56,6.56,0,0,0-9.67-.79L226.91,302a6.31,6.31,0,0,0-.26-4.19ZM304,353a6.56,6.56,0,0,0-.29-1.85l58.24-19.83a6.63,6.63,0,0,0,5.69,4.18l.13,74.13a6.59,6.59,0,0,0-2.39.57l-62.2-54.09A6.57,6.57,0,0,0,304,353Zm68.36,58.16a6.6,6.6,0,0,0-2.09-1.18l-.13-74.78a6.64,6.64,0,0,0,4.24-4.16l104.08,5.41Zm114.74-84.39a6.6,6.6,0,0,0-2.65.56l-28.8-51.1a6.5,6.5,0,0,0,1.45-5.55L504.94,268a6.63,6.63,0,0,0,12.3.33L609.73,304a6.36,6.36,0,0,0,1.37,5.31l-61,71.82a6.46,6.46,0,0,0-7.33-.81l-49.46-44.52a6.58,6.58,0,0,0,.44-2.32A6.66,6.66,0,0,0,487.06,326.79Zm74.67-150a6.52,6.52,0,0,0,.08.8L505.61,186a6.66,6.66,0,0,0-6.5-5.28l-16.17-58.45a6.66,6.66,0,0,0,2.61-2.9l78,52.89A6.61,6.61,0,0,0,561.73,176.83ZM479.4,21.94a6.63,6.63,0,0,0,3.39,1.78v87.11a6.4,6.4,0,0,0-6.33-.11L403.31,61.29c0-.14,0-.28,0-.43a6.56,6.56,0,0,0-.37-2.08ZM262,91a6.57,6.57,0,0,0,.74,3l-61.1,33.67a6.63,6.63,0,0,0-11.93,4l-73.07,8a6.61,6.61,0,0,0-.49-.9l47-42.9a6.59,6.59,0,0,0,10.18-7.26L241.76,50.8a6.38,6.38,0,0,0,6.38,1.3l16.34,33.77A6.61,6.61,0,0,0,262,91Zm-80.69-56.6a6.65,6.65,0,0,0,5.51-2.93l52.63,14c0,.11,0,.21,0,.32a6.57,6.57,0,0,0,.75,3L172.26,86.29a6.66,6.66,0,0,0-2.59-2l10.65-50A6.58,6.58,0,0,0,181.34,34.39ZM66.89,139.8a6.59,6.59,0,0,0,3.92-1.3l38.68,36.26a6.65,6.65,0,0,0-.44.81H67.39A6.65,6.65,0,0,0,62,170.29l4.21-30.55A6.5,6.5,0,0,0,66.89,139.8Zm.5,38.28h41.06c0,.09,0,.17,0,.25a6.61,6.61,0,0,0,2.29,5L79.24,211.42a6.6,6.6,0,0,0-6.17-2l-9-26.87A6.64,6.64,0,0,0,67.39,178.08ZM207.57,383.14A6.64,6.64,0,0,0,202,376.6l19-69.68a6.61,6.61,0,0,0,4.85-2.64l65.53,45.87a6.5,6.5,0,0,0,.56,6.72L246,405.31a6.53,6.53,0,0,0-8.62-.18l-31-18.19A6.6,6.6,0,0,0,207.57,383.14Zm40.66,27.11a6.57,6.57,0,0,0-.7-2.91l46.17-48.74a6.6,6.6,0,0,0,2.34.95V421.8a6.66,6.66,0,0,0-5.4,6.52,6.58,6.58,0,0,0,.43,2.27l-41.55,24.93a6.6,6.6,0,0,0-4.07-2.14l-2.19-36.72A6.64,6.64,0,0,0,248.23,410.25Zm2.59,47.43,41.55-24.93a6.41,6.41,0,0,0,6.85,1.91l9,17.11a6.61,6.61,0,0,0-2.42,4.23L251,458.41A6.55,6.55,0,0,0,250.82,457.68Zm220.8,66.38a6.6,6.6,0,0,0-2-1.09l32.77-83.59a6.53,6.53,0,0,0,6.78-2.92l45.69,17.62a6.24,6.24,0,0,0,.64,4.2Zm89.8-75.47a6.64,6.64,0,0,0-5.62,3.14l-45.65-17.6a6.55,6.55,0,0,0-2.5-6.55L543,392.19a6.58,6.58,0,0,0,9-3.91l118.21-16a6.6,6.6,0,0,0,1.55,3.2L566,450.45A6.62,6.62,0,0,0,561.41,448.59Zm112.88-83.64L621.64,309a6.6,6.6,0,0,0,1-2l58.08,5.24c0,.05,0,.1,0,.16a6.64,6.64,0,0,0,4.77,6.35l-8.71,45.74A6.61,6.61,0,0,0,674.29,364.95Zm12.16-59.14a6.65,6.65,0,0,0-5.21,3.93l-58.39-5.26a6.57,6.57,0,0,0-.33-1.5l52.2-30.2a6.26,6.26,0,0,0,4.66,1ZM676.18,228a6.64,6.64,0,0,0,6.06,6.59L678,260.56h0l-20.29-37.21A6.61,6.61,0,0,0,654,212.47V178.83a6.56,6.56,0,0,0,1.56-.52l23.41,44.35A6.63,6.63,0,0,0,676.18,228Zm-50.7-118.49a6.61,6.61,0,0,0,5.58,9.12l4.64,23.22a6.63,6.63,0,1,0,4.64,12.4l8.29,12.81a6.66,6.66,0,0,0-1.91,2.36l-49.85-27.3a6.57,6.57,0,0,0,.73-3,6.66,6.66,0,0,0-5.23-6.49l4.38-35.07.22,0a6.61,6.61,0,0,0,4.93-2.23Zm-35.1-19c0,.13,0,.26,0,.4a6.65,6.65,0,0,0,4,6.08l-4.45,35.58A6.62,6.62,0,0,0,587,144.5l-14.59,27.09a6.55,6.55,0,0,0-6.67-.88l-79.6-54c0-.06,0-.11,0-.16a6.57,6.57,0,0,0-.74-3l41-44.28A6.59,6.59,0,0,0,536,67.2ZM478,19.85l-76.2,36.74a6.62,6.62,0,0,0-3.58-2.2l14-42.08A6.65,6.65,0,0,0,415.26,8l62.15,9.06s0,.08,0,.12A6.6,6.6,0,0,0,478,19.85ZM402.66,9.32a6.66,6.66,0,0,0,6.09,4c.17,0,.33,0,.49,0L395.54,54.33a6.57,6.57,0,0,0-1.2.34L374.75,22.74a6.64,6.64,0,0,0,3-5.54c0-.07,0-.14,0-.21ZM328.57,19l-18.5,7.79a6.56,6.56,0,0,0-7.14-.17l-9.54-11.2a6.6,6.6,0,0,0,1.37-2.75l33.58,4.33c0,.08,0,.16,0,.25A6.56,6.56,0,0,0,328.57,19Zm-46.84-6.64a6.65,6.65,0,0,0,6.54,5.5,6.57,6.57,0,0,0,3.18-.85l9.61,11.28a6.51,6.51,0,0,0,.11,8.13L271.7,85.09a6.24,6.24,0,0,0-5-.41L250.34,50.89a6.62,6.62,0,0,0-4.24-11.73H246l-5.16-18a6.64,6.64,0,0,0,2.83-5.43h0Zm-103.8,21.1L167.22,83.73l-.18,0a6.64,6.64,0,0,0-6.6,6.18L94.35,95.23a6.62,6.62,0,0,0-.82-1.86l38.61-27,0,0,1-.75,1-.7,0,0,42.29-32.74A6.65,6.65,0,0,0,177.94,33.42ZM38.86,118.24a6.62,6.62,0,0,0,9.08-6.18c0-.18,0-.35-.05-.52l33.93-12a6.61,6.61,0,0,0,.85,1.47L67.54,126.57a6.51,6.51,0,0,0-.65-.07A6.63,6.63,0,0,0,63.75,139l-4.33,31.36a6.64,6.64,0,0,0-3.84,2.48L25.09,156a6.56,6.56,0,0,0,.26-1.75,6.64,6.64,0,0,0-3.81-6Zm-31,87.7a6.62,6.62,0,0,0,.75-12.84L17,160.64a6.44,6.44,0,0,0,7-2.4l30.51,16.83a6.56,6.56,0,0,0-.26,1.75,6.66,6.66,0,0,0,6.65,6.65,6.55,6.55,0,0,0,.86-.09l9,27.05a6.65,6.65,0,0,0-3,5.54s0,.07,0,.11l-15.92,1.68a6.64,6.64,0,0,0-12.57,4l-22.39,12a6.63,6.63,0,0,0-5.72-3.32l-.22,0ZM14,243.07a6.64,6.64,0,0,0,3.84-6,6.56,6.56,0,0,0-.09-.93l22.5-12a6.64,6.64,0,0,0,12.23-3.6c0-.09,0-.18,0-.27l15.86-1.67a6.66,6.66,0,0,0,1.9,2.51L36,292.42a6.51,6.51,0,0,0-.74-.07,6.57,6.57,0,0,0-1.71.25ZM41.92,299c0-.08,0-.15,0-.22l86.69-10.84a6.65,6.65,0,0,0,1.71,2.3l-25.61,40.41a6.57,6.57,0,0,0-3.16-.83,6.66,6.66,0,0,0-6.65,6.65,6.51,6.51,0,0,0,.07.69l-21.83,4.57a6.64,6.64,0,0,0-6.23-4.38A6.57,6.57,0,0,0,64,338L39.84,303.8A6.62,6.62,0,0,0,41.92,299Zm73.31,78.68a6.64,6.64,0,0,0-5.45-4.13l-5.54-31a6.67,6.67,0,0,0,3.33-3.31l43.18,4.67a6.66,6.66,0,0,0,6.5,5.26,6.5,6.5,0,0,0,.66-.07l7.78,27.8a6.64,6.64,0,0,0-3.75,3.18Zm90.51,63.15a6.56,6.56,0,0,0,.33-2,6.66,6.66,0,0,0-6.65-6.65,6.56,6.56,0,0,0-1.76.27l-24.87-45a6.59,6.59,0,0,0,1.65-4.34c0-.09,0-.17,0-.25h19.88c0,.09,0,.17,0,.25a6.66,6.66,0,0,0,6.65,6.65,6.59,6.59,0,0,0,3.54-1l31.3,18.35a6.57,6.57,0,0,0-.83,3.15,6.64,6.64,0,0,0,5.83,6.57L243,453.53a6.65,6.65,0,0,0-3.94,2.83ZM342.29,493.2a6.57,6.57,0,0,0,.82-3.13,6.65,6.65,0,0,0-2.9-5.49L367,422.82a6.5,6.5,0,0,0,7.66-5.78l122.39,15a5.47,5.47,0,0,0,.36,3.08l-77.27,36a6.63,6.63,0,1,0-9.86,8.76L385.5,520a6.54,6.54,0,0,0-8,2.72Zm47.32,34.49,71.31,2.5a6.58,6.58,0,0,0,.92,2.53L423.19,560a6.55,6.55,0,0,0-8.39.47l-27.73-28.94A6.64,6.64,0,0,0,389.61,527.69Zm32.44,43.7a6.59,6.59,0,0,0,2.86-9.53l38.65-27.28a6.58,6.58,0,0,0,3.4,1.24l10.68,114.37a6.58,6.58,0,0,0-1.58.47l-29-34.52a6.58,6.58,0,0,0,1.45-4.1,6.66,6.66,0,0,0-6.65-6.65,6.57,6.57,0,0,0-1.64.23Zm58.33,78.9-.21-.06-10.71-114.7a6.64,6.64,0,0,0,3.64-2.81l34.73,23.15a6.43,6.43,0,0,0,2.22,7.15Zm34.39-99.05c-.2,0-.4-.06-.61-.06a6.61,6.61,0,0,0-5.13,2.47l-35-23.34a6.16,6.16,0,0,0-.77-4.35l83.83-65.73c.14.12.28.24.43.36Z"/></g><circle class="cls-4" cx="546" cy="386.69" r="9"/><circle class="cls-4" cx="331.6" cy="92.38" r="9"/><circle class="cls-4" cx="511.58" cy="265.3" r="9"/><circle class="cls-4" cx="675.47" cy="372.25" r="9"/><circle class="cls-4" cx="383.03" cy="526.69" r="9"/><circle class="cls-5" cx="683" cy="227.69" r="9"/><circle class="cls-5" cx="412" cy="201.69" r="9"/><circle class="cls-5" cx="478.67" cy="656.37" r="9"/><circle class="cls-5" cx="484.09" cy="17.6" r="9"/><circle class="cls-5" cx="368.51" cy="416.06" r="9"/><circle class="cls-5" cx="214.47" cy="224.16" r="9"/><circle class="cls-6" cx="305.93" cy="33.68" r="9"/><circle class="cls-6" cx="368.35" cy="328.07" r="9"/><circle class="cls-6" cx="18.55" cy="154.45" r="9"/><circle class="cls-6" cx="34.89" cy="298.77" r="9"/><circle class="cls-4" cx="469.24" cy="529.97" r="9"/><circle class="cls-7" cx="590.38" cy="139.5" r="9"/><circle class="cls-7" cx="200.79" cy="383.89" r="9"/><circle class="cls-4" cx="181.41" cy="27.15" r="9"/><circle class="cls-4" cx="243.58" cy="459.24" r="9"/><circle class="cls-5" cx="111.21" cy="142.19" r="9"/></g></g></svg>