<?xml version="1.0" encoding="UTF-8"?>
<svg width="18px" height="18px" viewBox="0 0 18 18" version="1.1" xmlns="http://www.w3.org/2000/svg" xmlns:xlink="http://www.w3.org/1999/xlink">
    <!-- Generator: Sketch 49 (51002) - http://www.bohemiancoding.com/sketch -->
    <title>Fill 8</title>
    <desc>Created with Sketch.</desc>
    <defs></defs>
    <g id="Symbols" stroke="none" stroke-width="1" fill="none" fill-rule="evenodd">
        <g id="social" transform="translate(-35.000000, 0.000000)" fill="#748397">
            <g id="Fill-8">
                <path d="M53,18 L49.2733083,18 L49.2733083,12.1531842 C49.2733083,10.7586636 49.2462932,8.96524196 47.3347393,8.96524196 C45.3933756,8.96524196 45.0971406,10.4838651 45.0971406,12.0528758 L45.0971406,18 L41.3676543,18 L41.3676543,5.97698349 L44.9462285,5.97698349 L44.9462285,7.61970918 L44.9974641,7.61970918 C45.4958468,6.67447707 46.7129253,5.67745782 48.5275974,5.67745782 C52.30273,5.67745782 53,8.16697338 53,11.4053031 L53,18 Z M37.1616768,4.33332469 C35.9664898,4.33332469 35,3.36243229 35,2.1661958 C35,0.971358959 35.9664898,0 37.1616768,0 C38.3550006,0 39.3242852,0.971358959 39.3242852,2.1661958 C39.3242852,3.36243229 38.3550006,4.33332469 37.1616768,4.33332469 Z M35.2957692,17.9995334 L39.0280502,17.9995334 L39.0280502,5.97698349 L35.2957692,5.97698349 L35.2957692,17.9995334 Z"></path>
            </g>
        </g>
    </g>
</svg>