<?xml version="1.0" encoding="UTF-8"?>
<svg width="18px" height="20px" viewBox="0 0 18 20" version="1.1" xmlns="http://www.w3.org/2000/svg" xmlns:xlink="http://www.w3.org/1999/xlink">
    <!-- Generator: Sketch 49 (51002) - http://www.bohemiancoding.com/sketch -->
    <title>Path</title>
    <desc>Created with Sketch.</desc>
    <defs></defs>
    <g id="Welcome" stroke="none" stroke-width="1" fill="none" fill-rule="evenodd">
        <g id="Desktop-HD" transform="translate(-1062.000000, -5652.000000)" fill="#45C8FE">
            <g id="q's" transform="translate(340.000000, 5633.000000)">
                <path d="M722.536396,30.7410218 C722.189576,30.3637307 721.998197,29.8714799 722.000013,29.3613813 C721.999641,29.0705804 722.060536,28.7828981 722.178807,28.5167035 C722.472066,27.8172047 723.161015,27.3604509 723.926115,27.3582882 L726.705553,27.3582882 L727.748818,21.3691202 C727.748818,20.0618807 727.636096,19 728.777941,19 L733.219353,19 C734.361199,19 734.248476,20.0618807 734.248476,21.3691202 L735.291741,27.3623105 L738.07118,27.3623105 C738.835947,27.3655484 739.52435,27.8219405 739.818487,28.5207258 C740.155737,29.2667168 740.015422,30.1395227 739.460899,30.745044 L732.390398,38.3873672 C732.036643,38.7772778 731.53215,39 731.002711,39 C730.473271,39 729.968779,38.7772778 729.615023,38.3873672 L722.536396,30.7410218 Z" id="Path" transform="translate(731.000000, 29.000000) scale(-1, 1) translate(-731.000000, -29.000000) "></path>
            </g>
        </g>
    </g>
</svg>