<?xml version="1.0" encoding="UTF-8"?>
<svg width="29px" height="23px" viewBox="0 0 29 23" version="1.1" xmlns="http://www.w3.org/2000/svg" xmlns:xlink="http://www.w3.org/1999/xlink">
    <!-- Generator: Sketch 49 (51002) - http://www.bohemiancoding.com/sketch -->
    <title>Shape</title>
    <desc>Created with Sketch.</desc>
    <defs></defs>
    <g id="Welcome" stroke="none" stroke-width="1" fill="none" fill-rule="evenodd">
        <g id="Desktop-HD" transform="translate(-1130.000000, -6547.000000)" fill="#748397" fill-rule="nonzero">
            <g id="footer_2" transform="translate(100.000000, 6505.000000)">
                <g id="Group-51" transform="translate(1030.000000, 39.000000)">
                    <g id="Group-50">
                        <g id="social">
                            <path d="M3.4388422,7.69194591 C3.47487249,7.3363088 3.33911756,6.98480109 3.07329599,6.74544385 L0.365546218,3.48677249 L0.365546218,3 L8.77310924,3 L15.2717087,17.2380952 L20.9850608,3 L29,3 L29,3.48677249 L26.684874,5.70429159 C26.4852847,5.85627882 26.3862783,6.1060806 26.4276378,6.35332158 L26.4276378,22.6466785 C26.3862783,22.8939194 26.4852847,23.1437211 26.684874,23.2957084 L28.945845,25.5132276 L28.945845,26 L17.573296,26 L17.573296,25.5132276 L19.9154996,23.2416226 C20.1456582,23.0117577 20.1456582,22.9441506 20.1456582,22.5925927 L20.1456582,9.42269254 L13.6335201,25.9459142 L12.7535014,25.9459142 L5.17180204,9.42269254 L5.17180204,20.4967666 C5.1085886,20.9623518 5.26337158,21.4310942 5.59150326,21.7677837 L8.63772175,25.4591417 L8.63772175,25.9459142 L0,25.9459142 L0,25.4591417 L3.04621849,21.7677837 C3.37196108,21.430536 3.51771855,20.9586842 3.4388422,20.4967666 L3.4388422,7.69194591 Z" id="Shape"></path>
                        </g>
                    </g>
                </g>
            </g>
        </g>
    </g>
</svg>