<?xml version="1.0" encoding="UTF-8"?>
<svg width="32px" height="28px" viewBox="0 0 32 28" version="1.1" xmlns="http://www.w3.org/2000/svg" xmlns:xlink="http://www.w3.org/1999/xlink">
    <!-- Generator: Sketch 49 (51002) - http://www.bohemiancoding.com/sketch -->
    <title>Shape</title>
    <desc>Created with Sketch.</desc>
    <defs></defs>
    <g id="Welcome" stroke="none" stroke-width="1" fill="none" fill-rule="evenodd">
        <g id="Desktop-HD" transform="translate(-1189.000000, -6544.000000)" fill="#748397" fill-rule="nonzero">
            <g id="footer_2" transform="translate(100.000000, 6505.000000)">
                <g id="Group-51" transform="translate(1030.000000, 39.000000)">
                    <g id="Group-50">
                        <g id="social">
                            <path d="M90.9994518,14.2116889 C90.9277899,12.3074208 89.3034536,10.8204461 87.3626106,10.8850972 C86.5026679,10.914484 85.6845279,11.2612489 85.0634582,11.8431086 C82.3283626,10.009369 79.115521,9.00433863 75.813102,8.93381019 L77.3717482,1.55771024 L82.5134891,2.6215143 C82.6568129,3.92041317 83.8392342,4.86079245 85.1590074,4.71973556 C86.4787806,4.57867867 87.4342725,3.41495931 87.2909487,2.11606044 C87.1476249,0.817161564 85.9652037,-0.123217711 84.6454305,0.0178391802 C83.8870088,0.0942449963 83.2062208,0.529170411 82.8299958,1.17568116 L76.9417768,0.0178391802 C76.5416646,-0.0703213769 76.1415523,0.176528183 76.051975,0.576189375 C76.051975,0.582066746 76.051975,0.582066746 76.051975,0.587944116 L74.2783431,8.7927533 C70.9341214,8.84564963 67.679477,9.85655735 64.9085504,11.7020517 C63.4991998,10.3972754 61.2776811,10.4619265 59.9519361,11.8548633 C58.626191,13.2419227 58.6918811,15.4283046 60.1072035,16.7330808 C60.3819074,16.9858077 60.6984141,17.2032704 61.0507518,17.3560821 C61.0268645,17.7028469 61.0268645,18.0496118 61.0507518,18.3963766 C61.0507518,23.6918874 67.3211675,28 75.0546803,28 C82.788193,28 89.0586088,23.6977648 89.0586088,18.3963766 C89.0824961,18.0496118 89.0824961,17.7028469 89.0586088,17.3560821 C90.2649173,16.7624677 91.0233391,15.5399746 90.9994518,14.2116889 Z M66.9748017,16.5802692 C66.9748017,15.2754929 68.0557019,14.2116889 69.381447,14.2116889 C70.707192,14.2116889 71.7880923,15.2754929 71.7880923,16.5802692 C71.7880923,17.8850454 70.707192,18.9488495 69.381447,18.9488495 C68.0497301,18.9370947 66.9748017,17.8850454 66.9748017,16.5802692 Z M80.9309556,23.0806409 C79.2230138,24.3442756 77.1328752,24.9907863 74.994962,24.9026258 C72.8570489,24.9907863 70.7669103,24.3442756 69.0589685,23.0806409 C68.8320391,22.8102819 68.8738419,22.4047433 69.1485458,22.1814032 C69.3874188,21.98745 69.7278128,21.98745 69.9726576,22.1814032 C71.4178391,23.2216978 73.1795274,23.7506611 74.9710747,23.668378 C76.7626221,23.7624159 78.5302822,23.256962 79.9933792,22.2284222 C80.2561394,21.9756953 80.6861108,21.9815726 80.9428993,22.2401769 C81.1996877,22.4987812 81.1937159,22.9219519 80.9309556,23.1746788 L80.9309556,23.0806409 Z M80.5009842,19.0311327 C79.1752392,19.0311327 78.094339,17.9673286 78.094339,16.6625524 C78.094339,15.3577761 79.1752392,14.2939721 80.5009842,14.2939721 C81.8267293,14.2939721 82.9076295,15.3577761 82.9076295,16.6625524 C82.961376,17.9673286 81.9282503,19.0663969 80.6025053,19.1192932 C80.5607025,19.1192932 80.5248715,19.1192932 80.4830688,19.1192932 L80.5009842,19.0311327 Z" id="Shape"></path>
                        </g>
                    </g>
                </g>
            </g>
        </g>
    </g>
</svg>