<?xml version="1.0" encoding="UTF-8"?>
<svg width="29px" height="24px" viewBox="0 0 29 24" version="1.1" xmlns="http://www.w3.org/2000/svg" xmlns:xlink="http://www.w3.org/1999/xlink">
    <!-- Generator: Sketch 49 (51002) - http://www.bohemiancoding.com/sketch -->
    <title>Group</title>
    <desc>Created with Sketch.</desc>
    <defs></defs>
    <g id="Welcome" stroke="none" stroke-width="1" fill="none" fill-rule="evenodd">
        <g id="Desktop-HD" transform="translate(-1251.000000, -6546.000000)" fill="#748397" fill-rule="nonzero">
            <g id="footer_2" transform="translate(100.000000, 6505.000000)">
                <g id="Group-51" transform="translate(1030.000000, 39.000000)">
                    <g id="Group-50">
                        <g id="social">
                            <g id="Group" transform="translate(121.000000, 2.000000)">
                                <path d="M10.9848485,22.4727273 C11.6439394,22.4727273 11.9295455,22.1672727 12.3030303,21.8181818 C12.8742424,21.2727273 20.2121212,14.1818182 20.2121212,14.1818182 L15.7083333,13.0909091 L11.5340909,15.7090909 L10.9848485,22.2545455 L10.9848485,22.4727273 Z" id="path2989"></path>
                                <path d="M11.4242424,15.7963636 L22.0575758,23.5854545 C23.2659091,24.24 24.144697,23.9127273 24.4522727,22.4727273 L28.780303,2.22545455 C29.219697,0.458181818 28.0992424,-0.327272727 26.9348485,0.196363636 L1.53787879,9.92727273 C-0.197727273,10.6254545 -0.175757576,11.5854545 1.23030303,12 L7.75530303,14.0290909 L22.8484848,4.58181818 C23.5515152,4.14545455 24.2106061,4.38545455 23.6833333,4.86545455 L11.4242424,15.7963636 Z" id="path2991"></path>
                            </g>
                        </g>
                    </g>
                </g>
            </g>
        </g>
    </g>
</svg>